<svg xmlns="http://www.w3.org/2000/svg" viewBox="0 0 354.461 557.046"><defs><style>.a{fill:#202945;}.b{fill:#2b5597;}</style></defs><path class="a" d="M78.948,278.566a3.921,3.921,0,0,0,1.7,3.222l242.95,165.019a70.755,70.755,0,0,1,30.867,58.766v51.473L30.867,337.247a71.374,71.374,0,0,1,0-117.532L354.461,0V51.9a70.754,70.754,0,0,1-30.867,58.766l-242.95,164.6A3.744,3.744,0,0,0,78.948,278.566Z"/><path class="b" d="M384.209,178.4v51.558a70.63,70.63,0,0,1-31.291,59.02l-89.972,60.207-67.246-43.5Z" transform="translate(-29.748 -27.118)"/></svg>