<svg xmlns="http://www.w3.org/2000/svg" viewBox="0 0 341.198 536.203"><defs><style>.a{fill:#ee7623;}.b{fill:#f09f54;}</style></defs><path class="a" d="M75.994,268.142a3.774,3.774,0,0,0,1.633,3.1L311.486,430.089A68.107,68.107,0,0,1,341.2,486.656V536.2L29.712,324.628a68.7,68.7,0,0,1,0-113.134L341.2,0V49.955a68.107,68.107,0,0,1-29.712,56.567L77.627,264.959A3.6,3.6,0,0,0,75.994,268.142Z"/><path class="b" d="M377.155,178.4v49.629a67.987,67.987,0,0,1-30.12,56.812L260.43,342.8,195.7,300.921Z" transform="translate(-35.957 -32.779)"/></svg>