<svg xmlns="http://www.w3.org/2000/svg" viewBox="0 0 75.65 75.65"><defs><style>.a{fill:#fff;}</style></defs><g transform="translate(-8 -4)"><path class="a" d="M75.65,36.817A36.986,36.986,0,0,1,38.5,73.633,37.416,37.416,0,0,1,20.51,69.01L0,75.65,6.724,55.9A36.862,36.862,0,0,1,38.5,0,36.986,36.986,0,0,1,75.65,36.817ZM38.5,5.884A31.067,31.067,0,0,0,7.313,36.817a30.328,30.328,0,0,0,5.968,18.156L9.414,66.488l12.02-3.783A31.042,31.042,0,1,0,38.5,5.884ZM57.242,45.306a6.465,6.465,0,0,0-1.765-1.093c-.925-.42-5.38-2.606-6.22-2.942s-1.429-.42-2.017.42c-.588.925-2.354,2.942-2.858,3.53a1.4,1.4,0,0,1-1.933.252,24.438,24.438,0,0,1-7.313-4.455,27.221,27.221,0,0,1-5.043-6.22,1.291,1.291,0,0,1,.42-1.849c.42-.42.925-1.093,1.345-1.6a9.09,9.09,0,0,0,.925-1.513,1.55,1.55,0,0,0-.084-1.6c-.252-.42-2.017-4.875-2.774-6.724-.757-1.765-1.513-1.513-2.017-1.513s-1.177-.084-1.765-.084A3.621,3.621,0,0,0,23.7,21.014a10.181,10.181,0,0,0-3.194,7.565c0,4.455,3.278,8.742,3.7,9.33s6.3,10,15.55,13.617S49,53.964,50.686,53.8s5.38-2.185,6.136-4.287A7.287,7.287,0,0,0,57.242,45.306Z" transform="translate(8 4)"/></g></svg>