<svg xmlns="http://www.w3.org/2000/svg" viewBox="0 0 94.267 91.742"><defs><style>.a{fill:#ee7623;}</style></defs><g transform="translate(-389.393 -1262.804)"><g transform="translate(509.224 1356.181) rotate(146)"><path class="a" d="M15.6,59.384l47,31.923a13.687,13.687,0,0,1,5.971,11.368v9.957l-62.6-42.52A13.687,13.687,0,0,1,0,58.745c0-4.577,4.582-6.793,4.582-6.793S15.322,59.188,15.6,59.384Z" transform="translate(0 0)"/></g><g transform="translate(363.342 1261.078) rotate(-34)"><path class="a" d="M15.89,59.154,63.114,91.007c3.74,2.526,5.456,7.092,5.456,11.669l.515,10.068L6.321,69.932A13.7,13.7,0,0,1,0,58.745c0-4.577,4.779-7.085,4.779-7.085S15.611,58.957,15.89,59.154Z" transform="translate(0 0)"/></g></g></svg>