<svg xmlns="http://www.w3.org/2000/svg" viewBox="0 0 83.66 63.726"><defs><style>.a{fill:#fff;}</style></defs><g transform="translate(-5)"><g transform="translate(5)"><path class="a" d="M76.307,0H7.353A7.364,7.364,0,0,0,0,7.353v49.02a7.364,7.364,0,0,0,7.353,7.353H76.307a7.364,7.364,0,0,0,7.353-7.353V7.353A7.364,7.364,0,0,0,76.307,0ZM75.294,4.9l-33.3,33.3L8.4,4.9ZM4.9,55.36V8.35l23.611,23.4Zm3.464,3.464L31.993,35.2l8.284,8.2a2.466,2.466,0,0,0,3.464,0l8.072-8.072,23.48,23.5ZM78.758,55.36l-23.5-23.5,23.5-23.5Z"/></g></g></svg>