<svg id="Group_77" data-name="Group 77" xmlns="http://www.w3.org/2000/svg" viewBox="0 0 105.625 105.625">
  <defs>
    <style>
      .cls-1 {
        fill: #ee7623;
      }
    </style>
  </defs>
  <path id="Path_128" data-name="Path 128" class="cls-1" d="M52.813,0a52.813,52.813,0,1,0,52.813,52.813A52.968,52.968,0,0,0,52.813,0Zm0,102.1A49.292,49.292,0,1,1,102.1,52.813,49.437,49.437,0,0,1,52.813,102.1Z"/>
  <path id="Path_129" data-name="Path 129" class="cls-1" d="M40.885,34.441V16.66a1.76,1.76,0,1,0-3.521,0v17.78a7.446,7.446,0,0,0-5.105,5.105H19.76a1.76,1.76,0,0,0,0,3.521h12.5a7.069,7.069,0,0,0,13.907-1.76A7.18,7.18,0,0,0,40.885,34.441Zm-1.76,10.386a3.521,3.521,0,1,1,3.521-3.521A3.531,3.531,0,0,1,39.125,44.827Z" transform="translate(13.688 11.33)"/>
  <path id="Path_130" data-name="Path 130" class="cls-1" d="M30.76,12.181a1.663,1.663,0,0,0,1.76-1.76V8.66A1.76,1.76,0,1,0,29,8.66v1.76A1.764,1.764,0,0,0,30.76,12.181Z" transform="translate(22.052 5.247)"/>
  <path id="Path_131" data-name="Path 131" class="cls-1" d="M30.76,49.9A1.663,1.663,0,0,0,29,51.66v1.76a1.76,1.76,0,1,0,3.521,0V51.66A1.663,1.663,0,0,0,30.76,49.9Z" transform="translate(22.052 37.945)"/>
  <path id="Path_132" data-name="Path 132" class="cls-1" d="M53.521,28.9H51.76a1.76,1.76,0,1,0,0,3.521h1.76a1.76,1.76,0,0,0,0-3.521Z" transform="translate(38.021 21.976)"/>
  <path id="Path_133" data-name="Path 133" class="cls-1" d="M10.521,28.9H8.76a1.76,1.76,0,1,0,0,3.521h1.76a1.76,1.76,0,1,0,0-3.521Z" transform="translate(5.323 21.976)"/>
  <path id="Path_134" data-name="Path 134" class="cls-1" d="M45.56,13.828,44.328,15.06a1.7,1.7,0,0,0,0,2.465,1.7,1.7,0,0,0,2.465,0l1.232-1.232a1.743,1.743,0,1,0-2.465-2.465Z" transform="translate(33.306 10.114)"/>
  <path id="Path_135" data-name="Path 135" class="cls-1" d="M15.16,44.228,13.928,45.46a1.7,1.7,0,0,0,0,2.465,1.9,1.9,0,0,0,1.232.528,1.9,1.9,0,0,0,1.232-.528l1.232-1.232a1.743,1.743,0,0,0-2.465-2.465Z" transform="translate(10.19 33.23)"/>
  <path id="Path_136" data-name="Path 136" class="cls-1" d="M46.893,44.228a1.743,1.743,0,0,0-2.465,2.465l1.232,1.232a1.7,1.7,0,0,0,2.465,0,1.7,1.7,0,0,0,0-2.465Z" transform="translate(33.382 33.23)"/>
  <path id="Path_137" data-name="Path 137" class="cls-1" d="M16.493,13.828a1.743,1.743,0,0,0-2.465,2.465l1.232,1.232a1.9,1.9,0,0,0,1.232.528,1.9,1.9,0,0,0,1.232-.528,1.7,1.7,0,0,0,0-2.465Z" transform="translate(10.266 10.114)"/>
</svg>
