<svg xmlns="http://www.w3.org/2000/svg" viewBox="0 0 71.81 68.873"><defs><style>.a{fill:#ee7623;}</style></defs><path class="a" d="M70.3,31.2a5.241,5.241,0,0,0,1.294-5.32,4.973,4.973,0,0,0-4.17-3.451l-17.4-2.588A2.292,2.292,0,0,1,48.3,18.548L40.535,2.876a5.119,5.119,0,0,0-9.2,0L23.568,18.692a2.292,2.292,0,0,1-1.725,1.294L4.445,22.43a4.973,4.973,0,0,0-4.17,3.451A5.241,5.241,0,0,0,1.569,31.2L14.078,43.423a2.691,2.691,0,0,1,.719,2.013L11.778,62.69a5.51,5.51,0,0,0,2.013,5.176,5.34,5.34,0,0,0,5.464.431l15.529-8.2a2.8,2.8,0,0,1,2.157,0l15.529,8.2a4.726,4.726,0,0,0,2.444.575,4.776,4.776,0,0,0,3.019-1.007,4.883,4.883,0,0,0,2.013-5.032L56.926,45.58a2.233,2.233,0,0,1,.719-2.013Zm-16.1,14.81,3.019,17.254a2.05,2.05,0,0,1-.863,2.157,2.161,2.161,0,0,1-2.444.144L38.234,57.514a4.726,4.726,0,0,0-2.444-.575,5.08,5.08,0,0,0-2.444.575l-15.529,8.2a2.482,2.482,0,0,1-2.444-.144,2.151,2.151,0,0,1-.863-2.157l3.019-17.254a5.442,5.442,0,0,0-1.438-4.6L3.582,29.332a2.236,2.236,0,0,1-.575-2.3A2.344,2.344,0,0,1,4.876,25.45l17.4-2.588a5.054,5.054,0,0,0,3.882-2.876L33.921,4.17a2.036,2.036,0,0,1,2.013-1.294A2.169,2.169,0,0,1,37.947,4.17l7.764,15.816a5.054,5.054,0,0,0,3.882,2.876l17.4,2.588a2.344,2.344,0,0,1,1.869,1.582,2.236,2.236,0,0,1-.575,2.3L55.776,41.554A4.63,4.63,0,0,0,54.194,46.011Z" transform="translate(-0.029)"/></svg>