<svg xmlns="http://www.w3.org/2000/svg" viewBox="0 0 141.35 61.898"><defs><style>.a{fill:#ee7623;}.b{fill:#f09f54;}.c{fill:#e5e1e6;}</style></defs><g transform="translate(0)"><path class="a" d="M8.964,30.959a.4.4,0,0,0,.189.359L36.727,49.643a7.811,7.811,0,0,1,3.5,6.525V61.9L3.5,37.483a7.851,7.851,0,0,1,0-13.068L40.225,0V5.768a7.811,7.811,0,0,1-3.5,6.525L9.153,30.58A.432.432,0,0,0,8.964,30.959Z" transform="translate(0)"/><path class="b" d="M116.529,85v5.73a7.815,7.815,0,0,1-3.555,6.562l-11.423,7.47L94.1,99.808Z" transform="translate(-76.304 -68.925)"/></g><g transform="translate(55.128 41.379)"><path class="c" d="M299.462,231.547a.661.661,0,0,1-.284.132,9.549,9.549,0,0,1-.964.189,10.21,10.21,0,0,1-1.608.095,6.489,6.489,0,0,1-1.91-.284,4.1,4.1,0,0,1-1.626-.927,4.634,4.634,0,0,1-1.135-1.7,6.932,6.932,0,0,1-.435-2.591v-2.175a6.932,6.932,0,0,1,.435-2.591,4.634,4.634,0,0,1,1.135-1.7,3.966,3.966,0,0,1,1.626-.908,6.489,6.489,0,0,1,1.91-.284,10.02,10.02,0,0,1,1.608.113,9.541,9.541,0,0,1,.964.189,1.081,1.081,0,0,1,.284.113.315.315,0,0,1,.095.265v1.683c0,.227-.113.34-.322.34h-.057c-.34-.019-.719-.057-1.173-.095-.435-.038-.908-.057-1.4-.057a2.329,2.329,0,0,0-.832.132,1.536,1.536,0,0,0-.681.473,2.616,2.616,0,0,0-.454.889,5.015,5.015,0,0,0-.17,1.418v2.175a4.924,4.924,0,0,0,.17,1.418,2.3,2.3,0,0,0,.454.889,1.536,1.536,0,0,0,.681.473,2.474,2.474,0,0,0,.832.132c.492,0,.946-.019,1.4-.057.435-.038.832-.057,1.173-.095h.057c.227,0,.322.113.322.34v1.683A.432.432,0,0,1,299.462,231.547Z" transform="translate(-291.5 -218.8)"/><path class="c" d="M346.43,235.466a.313.313,0,0,1-.227.095h-1.74a.393.393,0,0,1-.227-.095.313.313,0,0,1-.095-.227v-.246a3.386,3.386,0,0,1-.964.511,3.853,3.853,0,0,1-2.194.057,2.224,2.224,0,0,1-1.456-1.286,3.2,3.2,0,0,1-.227-1.286v-.132a2.273,2.273,0,0,1,.908-2,5.317,5.317,0,0,1,2.931-.624h.851v-.567a1.014,1.014,0,0,0-.3-.87,1.571,1.571,0,0,0-.851-.208h-.756c-.246,0-.492.019-.738.019-.227.019-.454.019-.624.038-.189.019-.34.038-.473.038h-.076a.381.381,0,0,1-.208-.057c-.057-.038-.076-.113-.076-.227v-1.267c0-.17.095-.284.3-.34a11.839,11.839,0,0,1,1.173-.227,10,10,0,0,1,1.513-.113,6.06,6.06,0,0,1,1.513.17,2.871,2.871,0,0,1,1.154.567,2.378,2.378,0,0,1,.719.983,3.71,3.71,0,0,1,.265,1.456v5.617A.275.275,0,0,1,346.43,235.466Zm-.17-9.853c0,.076-.038.113-.132.113H344.52a.617.617,0,0,1-.227-.038.555.555,0,0,1-.151-.151l-.775-.87a.274.274,0,0,0-.4,0l-.794.87a1.122,1.122,0,0,1-.151.151.543.543,0,0,1-.227.038h-1.607c-.095,0-.132-.038-.132-.113a.251.251,0,0,1,.057-.151l1.608-1.834a.675.675,0,0,1,.511-.227h1.891a.675.675,0,0,1,.511.227l1.589,1.834A.446.446,0,0,1,346.26,225.613Zm-2.213,6.109h-.889a1.56,1.56,0,0,0-1.1.284,1.156,1.156,0,0,0-.284.851v.132c0,.34.076.548.246.643a1.558,1.558,0,0,0,.738.132,2.574,2.574,0,0,0,.681-.095,5.782,5.782,0,0,0,.605-.246Z" transform="translate(-330.26 -222.53)"/><path class="c" d="M394.325,249.545a.3.3,0,0,1-.227.095h-1.891a.323.323,0,0,1-.322-.322v-5.333a1.826,1.826,0,0,0-.208-1.021.855.855,0,0,0-.757-.265,3.375,3.375,0,0,0-.53.057,2.871,2.871,0,0,0-.681.227,8.728,8.728,0,0,1,.038,1.021v5.333a.393.393,0,0,1-.094.227.255.255,0,0,1-.227.095h-1.891a.393.393,0,0,1-.227-.095.3.3,0,0,1-.095-.227V244a2.1,2.1,0,0,0-.17-1.021c-.113-.189-.359-.265-.719-.265a1.571,1.571,0,0,0-.53.113,4.909,4.909,0,0,0-.662.3v6.222a.393.393,0,0,1-.095.227.255.255,0,0,1-.227.095h-1.891a.393.393,0,0,1-.227-.095.3.3,0,0,1-.095-.227v-8.3a.393.393,0,0,1,.095-.227.313.313,0,0,1,.227-.095H384.7a.393.393,0,0,1,.227.095.3.3,0,0,1,.095.208v.34a7,7,0,0,1,1.059-.548,3.332,3.332,0,0,1,1.248-.227,3.071,3.071,0,0,1,1.078.17,1.924,1.924,0,0,1,.775.586,7.171,7.171,0,0,1,.643-.34c.189-.095.4-.17.586-.246a3.026,3.026,0,0,1,.624-.132,4.114,4.114,0,0,1,.7-.038,2.89,2.89,0,0,1,1.286.246,1.965,1.965,0,0,1,.813.7,3.072,3.072,0,0,1,.435,1.078,6.4,6.4,0,0,1,.132,1.4v5.314C394.439,249.394,394.4,249.47,394.325,249.545Z" transform="translate(-365.371 -236.477)"/><path class="c" d="M457.133,235.382a3.836,3.836,0,0,1-2.912,1.04,13.8,13.8,0,0,1-1.778-.113,13.541,13.541,0,0,1-1.551-.284,1,1,0,0,1-.4-.17.391.391,0,0,1-.095-.284v-10.95a.323.323,0,0,1,.321-.322h1.891a.393.393,0,0,1,.227.095.313.313,0,0,1,.095.227v2.7c.227-.038.454-.057.7-.076.227-.019.435-.038.586-.038a3.761,3.761,0,0,1,2.95,1.078,4.2,4.2,0,0,1,.965,2.912v1.21A4.065,4.065,0,0,1,457.133,235.382Zm-1.513-4.161a4.731,4.731,0,0,0-.057-.756,1.55,1.55,0,0,0-.227-.605,1.192,1.192,0,0,0-.416-.4,1.408,1.408,0,0,0-.681-.132c-.189,0-.4,0-.643.019s-.454.038-.643.057v4.86c.151.019.321.038.548.057s.473.038.719.038a1.408,1.408,0,0,0,.681-.132,1.051,1.051,0,0,0,.416-.4,2.521,2.521,0,0,0,.227-.605,4.806,4.806,0,0,0,.057-.775v-1.229Z" transform="translate(-420.349 -223.26)"/><path class="c" d="M499.359,240.995a.313.313,0,0,0-.227-.095h-1.91a.393.393,0,0,0-.227.095.313.313,0,0,0-.095.227v8.321a.393.393,0,0,0,.095.227.313.313,0,0,0,.227.095h1.91a.393.393,0,0,0,.227-.095.313.313,0,0,0,.095-.227v-8.321A.349.349,0,0,0,499.359,240.995Z" transform="translate(-458.055 -236.72)"/><path class="c" d="M499.291,224.9v1.456a.393.393,0,0,1-.095.227.3.3,0,0,1-.208.095H497a.3.3,0,0,1-.208-.095.313.313,0,0,1-.095-.227V224.9a.325.325,0,0,1,.3-.3h1.986a.325.325,0,0,1,.3.3Z" transform="translate(-457.893 -223.503)"/><path class="c" d="M523.184,246.627a3.285,3.285,0,0,1-.757,1.267,3.413,3.413,0,0,1-1.21.813,4.546,4.546,0,0,1-1.683.284,4.617,4.617,0,0,1-1.683-.284,3.319,3.319,0,0,1-1.986-2.08,5.152,5.152,0,0,1-.265-1.683v-1.1a5.152,5.152,0,0,1,.265-1.683,3.286,3.286,0,0,1,.756-1.267,3.492,3.492,0,0,1,1.229-.813,5.135,5.135,0,0,1,3.366,0,3.043,3.043,0,0,1,1.21.813,3.535,3.535,0,0,1,.757,1.267,5.152,5.152,0,0,1,.265,1.683v1.1A5.818,5.818,0,0,1,523.184,246.627Zm-2.269-2.78c0-1.267-.454-1.91-1.381-1.91a1.219,1.219,0,0,0-1.04.473,2.311,2.311,0,0,0-.359,1.418v1.1a2.335,2.335,0,0,0,.359,1.437,1.233,1.233,0,0,0,1.04.492c.908,0,1.381-.643,1.381-1.91Z" transform="translate(-473.219 -235.829)"/></g><g transform="translate(55.128 7.527)"><path class="c" d="M299.764,44.944a2.391,2.391,0,0,0-1.74.511,2.664,2.664,0,0,0-.511,1.891v3.177h9.834a4.79,4.79,0,0,1-4.785,4.785l-5.049-.019V65.6a.687.687,0,0,1-.208.492.721.721,0,0,1-.492.208H292.2a.687.687,0,0,1-.492-.208.619.619,0,0,1-.208-.492V47.346a8.977,8.977,0,0,1,.719-3.877,5.564,5.564,0,0,1,1.891-2.288,7,7,0,0,1,2.761-1.1,18.474,18.474,0,0,1,3.272-.284h7.508a5.149,5.149,0,0,1-5.144,5.144Z" transform="translate(-291.5 -39.8)"/><path class="c" d="M406.815,85.251a7.794,7.794,0,0,1-1.7,2.875,7.443,7.443,0,0,1-2.761,1.834,11.246,11.246,0,0,1-7.6,0,7.443,7.443,0,0,1-2.761-1.834,7.546,7.546,0,0,1-1.7-2.875,11.456,11.456,0,0,1-.586-3.8V78.972a11.3,11.3,0,0,1,.586-3.8,8.059,8.059,0,0,1,1.7-2.875,7.764,7.764,0,0,1,2.761-1.834,11.246,11.246,0,0,1,7.6,0,7.6,7.6,0,0,1,2.761,1.834,8.059,8.059,0,0,1,1.7,2.875,11.456,11.456,0,0,1,.586,3.8V81.45A11.8,11.8,0,0,1,406.815,85.251Zm-5.144-6.279c0-2.875-1.04-4.312-3.1-4.312a2.767,2.767,0,0,0-2.345,1.078,5.434,5.434,0,0,0-.794,3.234V81.45a5.539,5.539,0,0,0,.794,3.253,2.688,2.688,0,0,0,2.345,1.1c2.061,0,3.1-1.437,3.1-4.331Z" transform="translate(-371.129 -64.126)"/><path class="c" d="M502.011,78.511V92.279a.767.767,0,0,1-.775.775h-4.161a.767.767,0,0,1-.775-.775v-18.7a.767.767,0,0,1,.775-.775h4.066a.767.767,0,0,1,.775.775v.643l4.652-1.21a.65.65,0,0,1,.813.643v2.875a.631.631,0,0,1-.473.624Z" transform="translate(-457.569 -66.559)"/><path class="c" d="M573.322,66.031a.6.6,0,0,1-.473.227h-4.312a.705.705,0,0,1-.511-.227.7.7,0,0,1-.227-.492V40.5a.666.666,0,0,1,.227-.492.766.766,0,0,1,.511-.208h4.312a.645.645,0,0,1,.473.208.67.67,0,0,1,.189.492V65.539A.67.67,0,0,1,573.322,66.031Z" transform="translate(-515.547 -39.8)"/><path class="c" d="M617.3,80.589a.67.67,0,0,0-.492-.189H612.5a.67.67,0,0,0-.492.189.57.57,0,0,0-.208.454V98.518a.635.635,0,0,0,.208.454.67.67,0,0,0,.492.189h4.312a.67.67,0,0,0,.492-.189.57.57,0,0,0,.208-.454V81.043A.636.636,0,0,0,617.3,80.589Z" transform="translate(-551.226 -72.722)"/><path class="c" d="M672.834,91.573a.705.705,0,0,1-.511.227H668.05a.637.637,0,0,1-.492-.227.766.766,0,0,1-.208-.511V79.338a8.973,8.973,0,0,0-.113-1.551,2.512,2.512,0,0,0-.4-1.021,1.514,1.514,0,0,0-.794-.548,4.314,4.314,0,0,0-1.324-.151,4.49,4.49,0,0,0-1.589.321,12.65,12.65,0,0,0-1.721.813V91.063a.766.766,0,0,1-.208.511.637.637,0,0,1-.492.227h-4.274a.778.778,0,0,1-.737-.738V72.586a1.009,1.009,0,0,1,1-1h3.347a1.009,1.009,0,0,1,1,1v.567a9.86,9.86,0,0,1,2.742-1.437A10.313,10.313,0,0,1,666.8,71.3a6.837,6.837,0,0,1,3.12.624,4.907,4.907,0,0,1,1.91,1.7,7.222,7.222,0,0,1,.946,2.553,18.265,18.265,0,0,1,.265,3.12V91.044A.636.636,0,0,1,672.834,91.573Z" transform="translate(-586.823 -65.343)"/><path class="c" d="M616.182,45.663h-4.5a.678.678,0,0,1-.681-.681v-4.5a.678.678,0,0,1,.681-.681h4.5a.678.678,0,0,1,.681.681v4.5A.678.678,0,0,1,616.182,45.663Z" transform="translate(-550.577 -39.8)"/></g></svg>