<svg id="Group_89" data-name="Group 89" xmlns="http://www.w3.org/2000/svg" viewBox="0 0 53.083 81.684">
  <defs>
    <style>
      .cls-1 {
        fill: #fff;
      }
    </style>
  </defs>
  <path id="Path_143" data-name="Path 143" class="cls-1" d="M11.83,40.854a.533.533,0,0,0,.25.474L48.466,65.512a10.308,10.308,0,0,1,4.617,8.61v7.562L4.617,49.465a10.36,10.36,0,0,1,0-17.245L53.083,0V7.612a10.308,10.308,0,0,1-4.617,8.61L12.079,40.355A.57.57,0,0,0,11.83,40.854Z" transform="translate(0)"/>
  <path id="Path_144" data-name="Path 144" class="cls-1" d="M123.7,85v7.562a10.313,10.313,0,0,1-4.692,8.66l-15.074,9.858L94.1,104.541Z" transform="translate(-70.616 -63.787)"/>
</svg>
