<svg xmlns="http://www.w3.org/2000/svg" viewBox="0 0 104.682 41.873"><defs><style>.a{fill:#ee7623;}</style></defs><path class="a" d="M102.938,17.447H99.1A20.651,20.651,0,0,0,78.686,0,20.972,20.972,0,0,0,58.1,16.749a8.9,8.9,0,0,0-5.583-2.094,8.23,8.23,0,0,0-5.583,2.094A21.411,21.411,0,0,0,26.345,0,21.065,21.065,0,0,0,5.409,19.192H1.745a1.745,1.745,0,0,0,0,3.489H5.409A21.065,21.065,0,0,0,26.345,41.873,20.854,20.854,0,0,0,47.107,21.46c1.57-2.268,3.315-3.489,5.234-3.489s3.838,1.221,5.234,3.489a20.94,20.94,0,0,0,41.873-.523h3.489a1.648,1.648,0,0,0,1.745-1.745A1.648,1.648,0,0,0,102.938,17.447ZM26.345,38.384a17.448,17.448,0,1,1,0-34.894A17.24,17.24,0,0,1,43.618,20.936,17.24,17.24,0,0,1,26.345,38.384Zm52.341,0a17.448,17.448,0,1,1,0-34.894A17.24,17.24,0,0,1,95.959,20.936,17.24,17.24,0,0,1,78.686,38.384Z"/></svg>