<svg xmlns="http://www.w3.org/2000/svg" viewBox="0 0 75.164 75.273"><defs><style>.a{fill:#fff;}</style></defs><g transform="translate(5.011 -5.994)"><g transform="translate(-5.011 5.994)"><path class="a" d="M59.423,69.675a7.4,7.4,0,0,0-5.37-2.462,7.656,7.656,0,0,0-5.433,2.447l-5.02,5c-.413-.222-.826-.429-1.223-.635-.572-.286-1.112-.556-1.573-.842A54.564,54.564,0,0,1,27.729,61.271,32.191,32.191,0,0,1,23.44,54.5c1.3-1.192,2.51-2.431,3.686-3.622.445-.445.89-.906,1.335-1.35,3.336-3.336,3.336-7.658,0-10.994L24.123,34.2c-.493-.492-1-1-1.477-1.509-.953-.985-1.954-2-2.987-2.955A7.52,7.52,0,0,0,14.336,27.4a7.782,7.782,0,0,0-5.4,2.335l-.032.032L3.5,35.216A11.623,11.623,0,0,0,.054,42.6,27.85,27.85,0,0,0,2.087,54.392,68.4,68.4,0,0,0,14.241,74.664,74.763,74.763,0,0,0,39.136,94.157c3.654,1.732,8.531,3.781,13.981,4.131.334.016.683.032,1,.032a11.971,11.971,0,0,0,9.167-3.94c.016-.032.048-.048.064-.079a36.117,36.117,0,0,1,2.78-2.876c.683-.651,1.382-1.335,2.065-2.049a7.925,7.925,0,0,0,2.4-5.5,7.635,7.635,0,0,0-2.447-5.449ZM65.111,86.4c-.016,0-.016.016,0,0-.62.667-1.255,1.271-1.938,1.938a41.774,41.774,0,0,0-3.066,3.177,7.659,7.659,0,0,1-5.974,2.526c-.238,0-.492,0-.731-.016A34.457,34.457,0,0,1,41.01,90.312,70.571,70.571,0,0,1,17.561,71.947,64.5,64.5,0,0,1,6.123,52.9a22.684,22.684,0,0,1-1.779-9.945,7.293,7.293,0,0,1,2.192-4.718l5.417-5.417a3.611,3.611,0,0,1,2.415-1.128A3.4,3.4,0,0,1,16.688,32.8l.048.048c.969.906,1.891,1.843,2.86,2.844.492.508,1,1.017,1.509,1.541l4.337,4.337c1.684,1.684,1.684,3.241,0,4.925-.461.461-.906.921-1.366,1.366-1.335,1.366-2.605,2.637-3.988,3.876-.032.032-.064.048-.079.079a3.24,3.24,0,0,0-.826,3.606l.048.143a34.82,34.82,0,0,0,5.131,8.372l.016.016A58.311,58.311,0,0,0,38.484,76.793a21.692,21.692,0,0,0,1.954,1.064c.572.286,1.112.556,1.573.842.064.032.127.079.191.111a3.444,3.444,0,0,0,1.573.4,3.4,3.4,0,0,0,2.415-1.1l5.433-5.433a3.594,3.594,0,0,1,2.4-1.192,3.236,3.236,0,0,1,2.288,1.16l.032.032L65.1,81.432C66.731,83.052,66.731,84.72,65.111,86.4Z" transform="translate(0.011 -23.046)"/><path class="a" d="M246.353,90.174A20.446,20.446,0,0,1,263,106.823a2.132,2.132,0,0,0,2.113,1.779,2.836,2.836,0,0,0,.365-.032,2.147,2.147,0,0,0,1.763-2.478A24.723,24.723,0,0,0,247.1,85.948a2.156,2.156,0,0,0-2.478,1.748A2.122,2.122,0,0,0,246.353,90.174Z" transform="translate(-205.728 -72.268)"/><path class="a" d="M284.083,33.2A40.71,40.71,0,0,0,250.911.027a2.142,2.142,0,1,0-.7,4.226A36.362,36.362,0,0,1,279.857,33.9a2.132,2.132,0,0,0,2.113,1.779,2.837,2.837,0,0,0,.365-.032A2.1,2.1,0,0,0,284.083,33.2Z" transform="translate(-208.951 0.006)"/></g></g></svg>