<svg xmlns="http://www.w3.org/2000/svg" viewBox="0 0 79.548 66.873"><defs><style>.a{fill:#ee7623;}</style></defs><path class="a" d="M50.129,1.982A2,2,0,0,0,48.146,0H27.133A2,2,0,0,0,25.15,1.982V14.59a2,2,0,0,0,1.982,1.982H46.164v5.6L27.133,41.207l-4.89-4.89a1.991,1.991,0,0,0-1.586-.582,2.034,2.034,0,0,0-1.454.846L.3,63.754a2,2,0,0,0-.132,2.062,1.974,1.974,0,0,0,1.745,1.057h75.6a2,2,0,0,0,1.982-1.982,1.887,1.887,0,0,0-.449-1.242L50.129,22.361ZM29.115,12.608V3.965H46.164v8.643ZM5.723,62.908,21.106,40.785l4.626,4.626a1.978,1.978,0,0,0,2.8,0L47.856,26.062,73.732,62.908Z" transform="translate(0.053)"/></svg>